REM DIRINDEX 1\2,1\3,1\4,1\5,1\6
REM DIRNAME folder01,folder02,folder03,folder04,folder05,folder06
TITLE ""
FILE "CD1-67.mp3" MP3
  TRACK 01 AUDIO
    TITLE "6:cjc091_1374"
    INDEX 01 00:00:00
  TRACK 02 AUDIO
    TITLE "0:"
    INDEX 01 00:02:02
  TRACK 03 AUDIO
    TITLE "2:cjc091_1375"
    INDEX 01 00:03:21
  TRACK 04 AUDIO
    TITLE "0:"
    INDEX 01 00:05:09
  TRACK 05 AUDIO
    TITLE "3:cjc091_1376"
    INDEX 01 00:05:24
  TRACK 06 AUDIO
    TITLE "0:"
    INDEX 01 00:07:37
  TRACK 07 AUDIO
    TITLE "4:cjc091_1377"
    INDEX 01 00:07:54
  TRACK 08 AUDIO
    TITLE "4:cjc091_1378"
    INDEX 01 00:13:16
  TRACK 09 AUDIO
    TITLE "4:cjc091_1379"
    INDEX 01 00:14:39
  TRACK 10 AUDIO
    TITLE "0:"
    INDEX 01 00:17:16
  TRACK 11 AUDIO
    TITLE "2:cjc091_1380"
    INDEX 01 00:18:23
  TRACK 12 AUDIO
    TITLE "0:"
    INDEX 01 00:20:41
  TRACK 13 AUDIO
    TITLE "3:cjc091_1381"
    INDEX 01 00:20:47
  TRACK 14 AUDIO
    TITLE "0:"
    INDEX 01 00:22:17
  TRACK 15 AUDIO
    TITLE "4:cjc091_1382"
    INDEX 01 00:22:32
  TRACK 16 AUDIO
    TITLE "4:cjc091_1383"
    INDEX 01 00:25:27
  TRACK 17 AUDIO
    TITLE "4:cjc091_1384"
    INDEX 01 00:27:55
  TRACK 18 AUDIO
    TITLE "0:"
    INDEX 01 00:30:28
  TRACK 19 AUDIO
    TITLE "2:cjc091_1385"
    INDEX 01 00:31:33
  TRACK 20 AUDIO
    TITLE "0:"
    INDEX 01 00:33:19
  TRACK 21 AUDIO
    TITLE "3:cjc091_1386"
    INDEX 01 00:33:24
  TRACK 22 AUDIO
    TITLE "0:"
    INDEX 01 00:34:73
  TRACK 23 AUDIO
    TITLE "4:cjc091_1387"
    INDEX 01 00:35:12
  TRACK 24 AUDIO
    TITLE "4:cjc091_1388"
    INDEX 01 00:37:07
  TRACK 25 AUDIO
    TITLE "4:cjc091_1389"
    INDEX 01 00:39:25
  TRACK 26 AUDIO
    TITLE "0:"
    INDEX 01 00:41:32
  TRACK 27 AUDIO
    TITLE "2:cjc091_1390"
    INDEX 01 00:42:39
  TRACK 28 AUDIO
    TITLE "0:"
    INDEX 01 00:43:68
  TRACK 29 AUDIO
    TITLE "3:cjc091_1391"
    INDEX 01 00:44:09
  TRACK 30 AUDIO
    TITLE "0:"
    INDEX 01 00:45:41
  TRACK 31 AUDIO
    TITLE "4:cjc091_1392"
    INDEX 01 00:45:53
  TRACK 32 AUDIO
    TITLE "4:cjc091_1393"
    INDEX 01 00:49:65
  TRACK 33 AUDIO
    TITLE "0:"
    INDEX 01 00:53:64
  TRACK 34 AUDIO
    TITLE "2:cjc091_1394"
    INDEX 01 00:54:72
  TRACK 35 AUDIO
    TITLE "0:"
    INDEX 01 00:57:03
  TRACK 36 AUDIO
    TITLE "3:cjc091_1395"
    INDEX 01 00:57:19
  TRACK 37 AUDIO
    TITLE "0:"
    INDEX 01 00:59:02
  TRACK 38 AUDIO
    TITLE "4:cjc091_1396"
    INDEX 01 00:59:22
  TRACK 39 AUDIO
    TITLE "4:cjc091_1397"
    INDEX 01 01:01:68
  TRACK 40 AUDIO
    TITLE "4:cjc091_1398"
    INDEX 01 01:04:05
  TRACK 41 AUDIO
    TITLE "4:cjc091_1399"
    INDEX 01 01:05:30
  TRACK 42 AUDIO
    TITLE "0:"
    INDEX 01 01:08:56
  TRACK 43 AUDIO
    TITLE "2:cjc091_1400"
    INDEX 01 01:09:65
  TRACK 44 AUDIO
    TITLE "0:"
    INDEX 01 01:12:03
  TRACK 45 AUDIO
    TITLE "3:cjc091_1401"
    INDEX 01 01:12:09
  TRACK 46 AUDIO
    TITLE "0:"
    INDEX 01 01:13:12
  TRACK 47 AUDIO
    TITLE "4:cjc091_1402"
    INDEX 01 01:13:34
  TRACK 48 AUDIO
    TITLE "4:cjc091_1403"
    INDEX 01 01:16:12
  TRACK 49 AUDIO
    TITLE "4:cjc091_1404"
    INDEX 01 01:19:34
  TRACK 50 AUDIO
    TITLE "0:"
    INDEX 01 01:22:03
  TRACK 51 AUDIO
    TITLE "2:cjc091_1405"
    INDEX 01 01:23:09
  TRACK 52 AUDIO
    TITLE "0:"
    INDEX 01 01:25:04
  TRACK 53 AUDIO
    TITLE "3:cjc091_1406"
    INDEX 01 01:25:17
  TRACK 54 AUDIO
    TITLE "0:"
    INDEX 01 01:26:64
  TRACK 55 AUDIO
    TITLE "4:cjc091_1407"
    INDEX 01 01:27:06
  TRACK 56 AUDIO
    TITLE "4:cjc091_1408"
    INDEX 01 01:30:30
  TRACK 57 AUDIO
    TITLE "0:"
    INDEX 01 01:35:14
  TRACK 58 AUDIO
    TITLE "2:cjc091_1409"
    INDEX 01 01:36:19
  TRACK 59 AUDIO
    TITLE "0:"
    INDEX 01 01:37:58
  TRACK 60 AUDIO
    TITLE "3:cjc091_1410"
    INDEX 01 01:37:73
  TRACK 61 AUDIO
    TITLE "0:"
    INDEX 01 01:39:12
  TRACK 62 AUDIO
    TITLE "4:cjc091_1411"
    INDEX 01 01:39:31
  TRACK 63 AUDIO
    TITLE "4:cjc091_1412"
    INDEX 01 01:43:52
  TRACK 64 AUDIO
    TITLE "0:"
    INDEX 01 01:45:34
  TRACK 65 AUDIO
    TITLE "2:cjc091_1413"
    INDEX 01 01:46:41
  TRACK 66 AUDIO
    TITLE "0:"
    INDEX 01 01:48:28
  TRACK 67 AUDIO
    TITLE "3:cjc091_1414"
    INDEX 01 01:48:38
  TRACK 68 AUDIO
    TITLE "0:"
    INDEX 01 01:49:61
  TRACK 69 AUDIO
    TITLE "4:cjc091_1415"
    INDEX 01 01:50:04
  TRACK 70 AUDIO
    TITLE "4:cjc091_1416"
    INDEX 01 01:54:07
  TRACK 71 AUDIO
    TITLE "4:cjc091_1417"
    INDEX 01 01:57:15
  TRACK 72 AUDIO
    TITLE "0:"
    INDEX 01 02:03:02
  TRACK 73 AUDIO
    TITLE "2:cjc091_1418"
    INDEX 01 02:04:12
  TRACK 74 AUDIO
    TITLE "0:"
    INDEX 01 02:05:56
  TRACK 75 AUDIO
    TITLE "3:cjc091_1419"
    INDEX 01 02:05:60
  TRACK 76 AUDIO
    TITLE "0:"
    INDEX 01 02:07:14
  TRACK 77 AUDIO
    TITLE "4:cjc091_1420"
    INDEX 01 02:07:26
  TRACK 78 AUDIO
    TITLE "4:cjc091_1421"
    INDEX 01 02:08:50
  TRACK 79 AUDIO
    TITLE "4:cjc091_1422"
    INDEX 01 02:11:63
  TRACK 80 AUDIO
    TITLE "4:cjc091_1423"
    INDEX 01 02:13:20
  TRACK 81 AUDIO
    TITLE "0:"
    INDEX 01 02:15:00
